<svg xmlns="http://www.w3.org/2000/svg" height="800" width="1200" xml:space="preserve" y="0" x="0" id="Layer_1" version="1.0" viewBox="-225.015 -126.312 1950.13 757.872"><style id="style83" type="text/css">.st0{fill:#111316}.st1{fill:#00c3ff}.st2{fill:#7ee0ff}</style><path id="path87" d="M661.1 277.5c0 25.2-20.1 33-48 33h-34.3V195.9h30c29.5 0 47.5 8.3 47.5 29.2 0 14.3-10.3 22.4-21.2 24.7 12.9 2.5 26 8.8 26 27.7zm-60.5-34.4h13.5c11.9 0 19.7-5.3 19.7-16.1 0-11.6-8-14.9-22.9-14.9h-10.3zm37.6 33.6c0-13.8-9.8-18.5-22.5-18.5h-15.1v35.9h12.7c14.5.1 25-2.9 24.9-17.4z" class="st0"/><path id="path89" d="M704.9 295.9c1.7 0 3.4-.3 5-.8l4.4 14.9c-4.8 2-9.9 3-15.1 3-13.1 0-20.7-7.8-20.7-22.4v-103l21.2-2.4v103.9c.2 4.8 1.7 6.8 5.2 6.8z" class="st0"/><path id="path91" d="M806.4 266.6c0 27.6-15.4 46.5-41.4 46.5s-41.4-17.6-41.4-46.5c0-27.6 15.4-46.3 41.4-46.3s41.4 17.6 41.4 46.3zm-60.2 0c0 21.1 6.5 30.3 18.9 30.3 12.4 0 18.9-9.5 18.9-30.3s-6.5-30.2-18.8-30.2-19.2 9.5-19.2 30.2z" class="st0"/><path id="path93" d="M887 230.6l-9.6 12.9c-4.9-4.2-11.1-6.5-17.6-6.5-12.3 0-19.8 9-19.8 30s7.8 28.7 19.8 28.7c6.4-.1 12.6-2.6 17.4-6.9l9.8 13.8c-8 6.6-18 10.2-28.4 10.1-25.4 0-41.1-17.6-41.1-45.6s15.8-46.9 41-46.9c10.5-.3 20.7 3.4 28.5 10.4z" class="st0"/><path id="path95" d="M901.6 310.5V187.6l21.2-2.4v125.3zm76.7 0h-24.4l-30.3-48 29.4-39.8h22.3l-29.2 38.7z" class="st0"/><path id="path97" d="M1053 230.7l-8.3 12.8c-6.3-4.6-13.8-7.3-21.6-7.5-9 0-13.8 3.5-13.8 8.8 0 5.3 3.4 8.5 18.4 12.6 17.9 4.8 28 12.1 28 27.6 0 18.2-16.9 27.9-37 27.9-12.8.4-25.3-4.1-35-12.4l10.8-12.1c6.6 5.5 14.9 8.6 23.6 8.8 9.6 0 15.8-4.1 15.8-10.3 0-7.7-3.4-10-19.9-14.6-18.1-5-26.1-13.6-26.1-26.5 0-14.6 13.4-25.5 33.9-25.5 11.3-.4 22.4 3.4 31.2 10.4z" class="st0"/><path id="path99" d="M1104.2 313c-17.2-.2-26.4-9.9-26.4-28.7v-46.4H1064v-15.1h13.8v-19.4l21.2-2.5v21.9h20.4l-2.1 15.1H1099v45.8c0 8.7 2.8 12.1 9.3 12.1 3.7-.2 7.3-1.3 10.3-3.5l7.4 13.8c-6.3 4.5-14 6.9-21.8 6.9z" class="st0"/><path id="path101" d="M1191.1 221.6l-3.7 20.7c-2.5-.7-5.2-1-7.8-1-10.6 0-16.1 7.8-19.4 22.5v46.8H1139v-87.8h18.4l2 17.2c4.1-12.6 12.6-19.6 22.9-19.6 3 0 5.9.4 8.8 1.2z" class="st0"/><path id="path103" d="M1275.1 273.2h-55c1.5 17.9 10 23.7 21.6 23.7 8-.1 15.6-2.9 21.9-7.8l8.8 12.1c-9.1 7.6-20.6 11.8-32.6 11.8-27.2 0-41.8-18.1-41.8-45.8 0-26.7 14.1-46.9 39-46.9s38.7 16.6 38.7 44.3c-.1 2.8-.4 6.3-.6 8.6zm-20.5-14.6c0-14.4-5.1-23.1-17.2-23.1-10 0-16.2 6.6-17.2 24.1h34.5v-1z" class="st0"/><path id="path105" d="M1366.3 298.6l-4.5 14.1c-9.6-.8-15.9-4.3-19.4-12.8-5.9 8.6-15.8 13.6-26.2 13.1-17.6 0-28.4-11.1-28.4-27 0-19.1 14.4-29.4 40-29.4h11v-4.9c0-11.5-5.2-15.3-16.4-15.3-7.9.4-15.8 1.9-23.2 4.7l-5-14.5c10.2-4 21-6.1 31.9-6.3 23.4 0 33.7 10.8 33.7 30.2v36.9c-.1 7 2.2 9.5 6.5 11.2zm-27.6-11.8v-17.9h-8.8c-13.8 0-20.7 5-20.7 15.3 0 8.5 4.3 13.3 12.4 13.3 7.3 0 14-4.1 17.1-10.7z" class="st0"/><path id="path107" d="M1500.1 247v63.5h-21.3v-60.2c0-10.9-4.3-14.1-9.6-14.1-7.3 0-11.8 5.1-16.6 13.3v61.1h-21.3v-60.2c0-10.9-4.5-14.1-9.6-14.1-7.5 0-12 5.1-16.8 13.3v61.1h-21.2v-87.8h18.4l1.7 11.5c5.5-8.7 15.1-13.9 25.4-13.8 9.6-.4 18.3 5.6 21.2 14.8 6.7-9.1 14.8-14.8 26.4-14.8 13.9-.3 23.3 9.8 23.3 26.4z" class="st0"/><path id="path109" d="M406 139.9c10.2 14.3 18.4 29.9 24.5 46.4l21.8-7.1c-6.9-18.9-16.4-36.8-28.1-53.1z" class="st1"/><path id="path111" d="M256.9 36.8c-5.8-.2-11.7-.2-17.5 0l1.6 22.8c8.8-.3 17.6-.1 26.3.7 8.7.8 17.4 2.2 26 4.2l5.8-22.1c-9.8-2.3-19.7-3.9-29.7-4.8-4.1-.4-8.4-.7-12.5-.8z" class="st1"/><path id="path113" d="M43.4 353.1c-9.1-18.6-15.7-38.3-19.5-58.6L0 298.3c4.2 23 11.6 45.3 22 66.2z" class="st1"/><path id="path115" d="M31.1 123.2L52.3 135c10.6-17.8 23.5-34 38.5-48.3l-16.2-18c-17 16.1-31.6 34.4-43.5 54.5z" class="st1"/><path id="path117" d="M1.1 201.1l23.8 4.2c4.2-20.3 11.2-39.9 20.7-58.3l-21.2-11.7c-10.8 20.8-18.6 42.9-23.3 65.8z" class="st1"/><path id="path119" d="M156.2 16.4l9.5 22.2c19.3-7.6 39.5-12.5 60.1-14.5L224.1 0c-23.3 2.2-46.1 7.7-67.9 16.4z" class="st1"/><path id="path121" d="M84.8 59.4l16.2 18C116.8 64 134.3 52.8 153.1 44l-9.5-22.2c-21.3 9.7-41.1 22.4-58.8 37.6z" class="st1"/><path id="path123" d="M443.4 415.2l-18.9-15.1c-13.4 15.8-28.9 29.7-46 41.4l13 20.5c19.4-13.1 36.9-28.8 51.9-46.8z" class="st1"/><path id="path125" d="M148.8 458.3c-18.6-9.1-35.9-20.7-51.4-34.5l-16.5 17.7c17.4 15.6 37 28.6 58 38.8z" class="st1"/><path id="path127" d="M501.7 275.8c3.1-32.6-.2-65.5-9.7-96.8l-23 7.6c13.2 44.4 12.7 91.7-1.3 135.8l22.8 8.1c5.7-17.7 9.5-36.1 11.2-54.7z" class="st1"/><path id="path129" d="M360.5 436.8l-12.2-19.2c-15.1 9-31.3 16-48.3 20.7l5.4 22.2c19.4-5.4 37.9-13.3 55.1-23.7z" class="st1"/><path id="path131" d="M60.8 276.4c-1.7-14.2-1.9-28.6-.5-42.9.3-3.5.7-6.5 1.2-9.6l-22.5-4c-.5 3.8-1 7.6-1.4 11.5-1.5 16.1-1.3 32.4.7 48.5z" class="st1"/><path id="path133" d="M314.5 32.3c19.9 5.8 38.9 14.4 56.4 25.4l13.5-20.2C364.6 25 343.2 15.4 320.7 8.8z" class="st1"/><path id="path135" d="M216.1 503.4l2.3-24.1c-19.5-2.6-38.6-7.8-56.8-15.3l-10.1 22.2c20.6 8.5 42.4 14.3 64.6 17.2z" class="st1"/><path id="path137" d="M97.6 405.3l15.7-16.6c-12.4-12.5-23.1-26.5-31.8-41.8l-20.3 10.7c9.9 17.4 22.2 33.5 36.4 47.7z" class="st1"/><path id="path139" d="M395.8 45.3l-13.6 20.2c16.9 12 32 26.3 45.1 42.4l19.4-14.8c-14.7-18.3-31.8-34.3-50.9-47.8z" class="st1"/><path id="path141" d="M419 380.8c12-16.1 21.8-33.7 29.1-52.5l-21.5-7.7c-6.4 16.4-15 31.9-25.5 46z" class="st1"/><path id="path143" d="M436.9 197.2l-21.6 7.2c6 20.7 8 42.4 6 63.8-1.1 11.9-3.4 23.7-6.9 35.2l21.5 7.6c4.1-13.2 6.9-26.9 8.2-40.7 2.3-24.6-.2-49.4-7.2-73.1z" class="st2"/><path id="path145" d="M221.5 445.6l2.1-22.7c-13.3-2-26.4-5.5-38.9-10.5l-9.4 20.7c14.8 6 30.3 10.2 46.2 12.5z" class="st2"/><path id="path147" d="M378.1 203.8l20.4-6.9c-4.9-12.9-11.4-25.2-19.4-36.6l-17.1 13c6.6 9.5 12 19.7 16.1 30.5z" class="st2"/><path id="path149" d="M254.7 93.3h-11.2l1.5 21.4c11.5-.3 22.9.7 34.2 3.2l5.5-20.7c-6.8-1.5-13.6-2.6-20.5-3.2-3.1-.3-6.3-.5-9.5-.7z" class="st2"/><path id="path151" d="M81.8 151.4l20 11.1c7.5-12.4 16.5-23.7 26.9-33.8l-15.4-17c-12.2 11.8-22.8 25.1-31.5 39.7z" class="st2"/><path id="path153" d="M300.1 87.1c13.8 4.2 27.1 10.2 39.4 17.7l12.7-19c-14.4-8.9-30-15.8-46.2-20.7z" class="st2"/><path id="path155" d="M382.2 142.1l18.1-13.8c-10.7-13.2-23.2-24.9-36.9-34.8l-12.7 19c11.8 8.5 22.3 18.4 31.5 29.6z" class="st2"/><path id="path157" d="M357.8 332.2l16.8 13.4c8.2-11.2 14.9-23.3 20.1-36.2l-20.2-7.2c-4.4 10.6-10 20.7-16.7 30z" class="st2"/><path id="path159" d="M136.2 382.7l-15.6 16.6c12.8 11.2 26.9 20.7 42.2 28.2l9.4-20.7c-13-6.4-25.1-14.6-36-24.1z" class="st2"/><path id="path161" d="M115.5 267.8c-1-9.7-1.1-19.5-.2-29.2.2-1.7.4-3.5.6-5.1l-21.1-3.8c-.3 2.3-.6 4.6-.8 6.9-1.1 11.5-.9 23 .3 34.5z" class="st2"/><path id="path163" d="M79.9 285.6l-22.6 3.5c3.2 16.7 8.6 33 16 48.3l20.2-10.7c-6.3-13.1-10.8-26.9-13.6-41.1z" class="st2"/><path id="path165" d="M348 393.9l12.3 19.2c14-9.6 26.7-21 37.7-33.8l-17.9-14.2c-9.4 10.9-20.2 20.6-32.1 28.8z" class="st2"/><path id="path167" d="M95.1 174.5l-19.9-11c-7.8 15.1-13.5 31.2-17 47.8l22.5 4c3-14.2 7.8-27.9 14.4-40.8z" class="st2"/><path id="path169" d="M286.9 384.5l5 20.7c13.3-3.8 26.1-9.2 38.1-16.2l-11.6-18.1c-9.9 5.7-20.5 10.3-31.5 13.6z" class="st2"/><path id="path171" d="M130.3 321.1l-19 9.9c6.9 12 15.4 23 25.1 32.9l14.8-15.7c-8-8.2-15-17.3-20.9-27.1z" class="st2"/><path id="path173" d="M243 424.7c-1.9 0-3.8-.2-5.7-.4l-2.1 22.7c17.9 1.3 35.9.1 53.4-3.5l-5.3-22.2c-13.2 2.8-26.8 3.9-40.3 3.4z" class="st2"/><path id="path175" d="M123.6 102.5l15.3 16.9c11.1-9.3 23.3-17.1 36.4-23.3l-9-21c-15.4 7.2-29.7 16.4-42.7 27.4z" class="st2"/><path id="path177" d="M179 69.7l9 21c13.5-5.2 27.6-8.7 42-10.3l-1.7-22.8c-16.9 1.9-33.5 5.9-49.3 12.1z" class="st2"/><path id="path179" d="M236.6 505.1c21.5.7 43-1.1 64.2-5.2l-5-23.3c-18.3 3.8-37 5.3-55.8 4.6-3 0-5.2-.4-8.2-.6l-2.1 24.4c2.3.1 4.6.1 6.9 0z" class="st1"/></svg>